HIERARCHY
ROOT Hips
{
	OFFSET -0.179506 -22.333345 2.821913
	CHANNELS 6 Xposition Yposition Zposition Zrotation Yrotation Xrotation 
	JOINT LeftUpLeg
	{
		OFFSET 6.951974 -9.140623 -0.681533
		CHANNELS 3 Zrotation Yrotation Xrotation
		JOINT LeftLeg
		{
			OFFSET 3.427654 -37.519855 -0.449580
			CHANNELS 3 Zrotation Yrotation Xrotation
			JOINT LeftFoot
			{
				OFFSET -1.359570 -39.796059 -4.369333
				CHANNELS 3 Zrotation Yrotation Xrotation
				JOINT LeftToe
				{
					OFFSET 2.635814 -5.579078 11.928840
					CHANNELS 3 Zrotation Yrotation Xrotation
					End Site
					{
						OFFSET 0.000000 0.000000 0.000000
					}
				}
			}
		}
	}
	JOINT RightUpLeg
	{
		OFFSET -6.767048 -9.052170 -0.431982
		CHANNELS 3 Zrotation Yrotation Xrotation
		JOINT RightLeg
		{
			OFFSET -3.829005 -38.256897 -0.885003
			CHANNELS 3 Zrotation Yrotation Xrotation
			JOINT RightFoot
			{
				OFFSET 1.577377 -39.841461 -4.231180
				CHANNELS 3 Zrotation Yrotation Xrotation
				JOINT RightToe
				{
					OFFSET -2.537174 -4.814398 12.334795
					CHANNELS 3 Zrotation Yrotation Xrotation
					End Site
					{
						OFFSET 0.000000 0.000000 0.000000
					}
				}
			}
		}
	}
	JOINT Spine
	{
		OFFSET -0.253288 10.896323 -2.669631
		CHANNELS 3 Zrotation Yrotation Xrotation
		JOINT Spine1
		{
			OFFSET 0.548704 13.518043 0.109247
			CHANNELS 3 Zrotation Yrotation Xrotation
			JOINT Spine2
			{
				OFFSET 0.145701 5.292222 2.542457
				CHANNELS 3 Zrotation Yrotation Xrotation
				JOINT Neck
				{
					OFFSET -0.277840 21.387037 -4.285703
					CHANNELS 3 Zrotation Yrotation Xrotation
					JOINT Head
					{
						OFFSET 0.515184 6.496960 5.134897
						CHANNELS 3 Zrotation Yrotation Xrotation
						End Site
						{
							OFFSET 0.000000 0.000000 0.000000
						}
					}
				}
				JOINT LeftShoulder
				{
					OFFSET 7.884473 12.174932 -3.408961
					CHANNELS 3 Zrotation Yrotation Xrotation
					JOINT LeftArm
					{
						OFFSET 9.097692 3.046888 -0.886815
						CHANNELS 3 Zrotation Yrotation Xrotation
						JOINT LeftForeArm
						{
							OFFSET 25.961220 -1.277207 -2.745643
							CHANNELS 3 Zrotation Yrotation Xrotation
							JOINT LeftHand
							{
								OFFSET 24.923361 0.898606 -0.117091
								CHANNELS 3 Zrotation Yrotation Xrotation
								End Site
								{
									OFFSET 0.000000 0.000000 0.000000
								}
							}
						}
					}
				}
				JOINT RightShoulder
				{
					OFFSET -8.175920 11.883285 -3.861528
					CHANNELS 3 Zrotation Yrotation Xrotation
					JOINT RightArm
					{
						OFFSET -9.601238 3.255117 -0.914307
						CHANNELS 3 Zrotation Yrotation Xrotation
						JOINT RightForeArm
						{
							OFFSET -25.374195 -1.332924 -2.140099
							CHANNELS 3 Zrotation Yrotation Xrotation
							JOINT RightHand
							{
								OFFSET -25.529810 0.777228 -0.555919
								CHANNELS 3 Zrotation Yrotation Xrotation
								End Site
								{
									OFFSET 0.000000 0.000000 0.000000
								}
							}
						}
					}
				}
			}
		}
	}
}
MOTION
Frames: 9
Frame Time: 0.033333
-3.420353 -54.587261 90.984398 -111.684643 -4.806509 91.836972 7.260358 9.034893 0.231421 -4.519426 12.968782 10.024492 -1.853644 10.614501 -12.559831 nan nan nan -9.366796 -14.282511 -17.576418 3.530787 -26.745967 9.262688 4.946354 -11.101070 -3.300584 nan nan nan 4.494925 -0.782157 19.775554 3.397268 -0.635292 0.777470 3.624205 -0.384414 2.194206 0.564958 -20.888985 4.312078 7.858822 -18.727228 0.177075 -14.546583 -8.122290 -0.578030 -53.254799 -23.697212 18.748956 -3.677978 -75.652169 19.506794 1.466077 -19.238753 -26.914444 10.074583 9.609636 -2.758828 35.123078 9.988028 -0.337474 -22.766689 29.326497 -25.092022 4.403146 4.279023 -3.394218 
-3.435325 -54.815685 90.970612 -111.623532 -4.563281 91.576601 7.429952 9.013815 0.653259 -4.564393 12.888958 9.679591 -1.817531 10.718469 -12.629414 nan nan nan -9.286331 -14.337642 -17.172107 3.683310 -26.628205 8.870429 4.998519 -11.110971 -2.934573 nan nan nan 4.419851 -0.694497 19.616008 3.452439 -0.602865 0.836646 3.705786 -0.403067 2.119279 0.377880 -20.904417 4.633538 7.815397 -18.586205 0.410132 -14.493000 -8.400322 -0.722258 -53.249015 -24.150460 18.939778 -3.661566 -76.000007 19.496561 1.461679 -19.228717 -27.127555 9.977375 9.595396 -2.805996 34.673059 9.943912 -0.666851 -23.122364 29.305540 -25.851659 4.618430 4.474594 -3.595278 
-3.405582 -55.042393 90.954285 -111.565699 -4.317540 91.329798 7.660370 9.058735 1.003414 -4.666975 12.716389 9.428760 -1.784023 10.822164 -12.801122 nan nan nan -9.168713 -14.384295 -16.833329 3.748115 -26.562347 8.569932 5.060731 -11.091204 -2.638307 nan nan nan 4.302617 -0.603470 19.434259 3.498977 -0.629025 0.966873 3.781382 -0.324733 2.078519 0.228679 -20.940927 4.841216 7.875694 -18.530590 0.621469 -14.364638 -8.768684 -0.892748 -53.165244 -24.685107 19.125775 -3.784967 -76.301024 19.355057 1.975383 -19.089831 -27.627554 9.913418 9.616569 -2.887826 34.014879 9.850152 -0.987212 -23.245701 29.373340 -25.983419 5.036602 4.570243 -3.720890 
-3.370859 -55.311584 90.942085 -111.393324 -4.145884 91.066377 7.754019 9.052680 1.348034 -4.733698 12.309800 9.118423 -1.785317 10.757704 -13.019802 nan nan nan -9.132491 -14.556626 -16.516126 3.705978 -26.630490 8.366368 5.232687 -11.007566 -2.416848 nan nan nan 4.202796 -0.625591 19.335338 3.497850 -0.744453 1.013525 3.809838 -0.230343 2.088826 0.127303 -20.895380 4.919743 7.984684 -18.530473 0.787079 -14.128784 -9.080404 -1.157837 -53.121725 -25.220014 19.332635 -4.394648 -76.594944 19.423171 2.884691 -18.905388 -28.167091 9.796091 9.646891 -3.093846 33.531698 9.755408 -1.192154 -23.311524 29.626656 -26.549246 5.082880 4.634422 -3.873038 
-3.359643 -55.604279 90.943352 -111.162914 -4.000413 90.701419 7.776343 9.026187 1.836654 -4.755840 11.859225 8.747044 -1.911523 10.639589 -13.312910 nan nan nan -9.166952 -14.807461 -16.076622 3.658760 -26.719020 8.155903 5.484432 -10.922780 -2.255345 nan nan nan 4.146072 -0.726118 19.359438 3.467387 -0.846297 1.041631 3.804831 -0.252826 2.059741 0.159593 -20.650185 4.956229 7.922107 -18.554608 1.081213 -13.930592 -9.224307 -1.528557 -53.028448 -25.719527 19.418669 -5.092744 -76.887023 20.238773 2.605166 -19.056650 -27.800789 9.643595 9.651238 -3.301659 33.326360 9.834183 -1.285435 -23.692647 29.805108 -27.239024 5.199103 4.486992 -4.176889 
-3.311653 -55.866253 90.908203 -111.102764 -3.825849 90.547342 7.886216 9.041557 2.080009 -4.851708 11.630634 8.505350 -1.979059 10.538949 -13.579706 nan nan nan -9.057784 -14.800945 -15.928913 3.563278 -26.852673 7.912319 5.594461 -10.931945 -2.122355 nan nan nan 3.948541 -0.681751 19.165191 3.525119 -0.850459 1.008776 3.877097 -0.281428 2.054380 0.219640 -20.450538 5.082769 7.749738 -18.552685 1.423367 -13.746492 -9.367072 -1.781319 -53.003246 -26.290325 19.427612 -5.486626 -77.122428 20.977482 1.973980 -19.407626 -27.366692 9.398449 9.627982 -3.382752 33.193605 9.972474 -1.435381 -24.294020 29.890359 -27.561678 5.318464 4.275874 -4.627371 
-3.219661 -56.100300 90.841858 -111.146266 -3.588105 90.638995 8.133563 9.071153 2.002718 -5.059372 11.508216 8.418071 -1.971911 10.441744 -13.904528 nan nan nan -8.808181 -14.592245 -16.111269 3.455208 -26.927227 7.733232 5.606462 -11.000364 -1.915418 nan nan nan 3.761402 -0.490142 18.667756 3.655729 -0.831010 1.025639 3.952614 -0.280366 2.089403 0.220857 -20.329287 5.245670 7.612472 -18.546219 1.724545 -13.602286 -9.583243 -1.924279 -53.030727 -26.963429 19.517958 -5.759443 -77.311578 21.300161 2.086143 -19.612084 -27.535591 9.247401 9.554533 -3.376888 32.766674 10.046745 -1.599631 -24.778804 30.061574 -27.722025 5.063784 4.352153 -5.159262 
-3.137343 -56.312336 90.816940 -111.052604 -3.318448 90.511803 8.483523 9.136351 2.172871 -5.308270 11.139375 8.280387 -2.030301 10.268524 -14.269939 nan nan nan -8.636777 -14.437906 -15.924640 3.470483 -26.991287 7.411779 5.641589 -11.121643 -1.581370 nan nan nan 3.590642 -0.377153 18.392243 3.794366 -0.849375 1.125155 4.039205 -0.226918 2.117882 0.264699 -20.207084 5.353306 7.560494 -18.683025 1.927572 -13.503852 -9.916647 -2.084628 -52.871682 -27.641653 19.556853 -5.921204 -77.633841 21.658146 1.868289 -19.631921 -27.394078 9.159796 9.472737 -3.486239 32.283763 9.993629 -1.763267 -25.182067 30.298026 -27.814814 4.769812 4.397032 -5.550153 
-3.079950 -56.571354 90.811150 -110.822074 -3.153789 90.314153 8.624343 9.139086 2.404385 -5.442752 10.663386 8.111399 -1.993171 10.038789 -14.623421 nan nan nan -8.694137 -14.540307 -15.663732 3.557262 -27.086187 7.194214 5.786622 -11.109107 -1.302658 nan nan nan 3.439592 -0.239350 18.174171 3.880546 -0.974165 1.227927 4.111115 -0.245841 2.108599 0.261312 -20.117478 5.555933 7.550679 -18.774176 2.116284 -13.342727 -10.406434 -2.207586 -52.658374 -28.260844 19.625588 -5.498498 -78.016626 21.345289 1.767921 -19.471959 -27.384573 8.964564 9.425246 -3.710728 32.075614 10.031291 -2.091463 -25.770343 30.289874 -28.186198 4.947926 4.466822 -5.343025 
